<svg id="Capa_1" enable-background="new 0 0 502 502" height="44" viewBox="0 0 502 502" width="44" xmlns="http://www.w3.org/2000/svg" xmlns:xlink="http://www.w3.org/1999/xlink"><linearGradient id="lg1"><stop offset="0" stop-color="#f4d952"/><stop offset="1" stop-color="#f9edaf"/></linearGradient><linearGradient id="SVGID_1_" gradientUnits="userSpaceOnUse" x1="251" x2="251" xlink:href="#lg1" y1="505.177" y2="167.633"/><linearGradient id="SVGID_2_" gradientUnits="userSpaceOnUse" x1="251" x2="251" y1="269.05" y2="11.531"><stop offset="0" stop-color="#ec6f80"/><stop offset="1" stop-color="#eca0aa"/></linearGradient><linearGradient id="SVGID_3_" gradientUnits="userSpaceOnUse" x1="251" x2="251" xlink:href="#lg1" y1="192.026" y2="58.244"/><g><path d="m380.445 228.387c-50.677-21.072-134.947 0-189.516 29.898l-45.625 45.625c-15.206 15.206-23.748 35.829-23.748 57.334v90.13c0 27.96 22.666 50.626 50.626 50.626h157.636c27.96 0 50.626-22.666 50.626-50.626v-222.987z" fill="url(#SVGID_1_)"/><path d="m250.542.001c-71.541.247-128.987 59.307-128.987 130.849v32.285c0 16.992 13.774 30.766 30.766 30.766h19.285c16.992 0 30.766-13.774 30.766-30.766v-32.89c0-26.666 21.134-48.975 47.796-49.421 27.237-.455 49.459 21.488 49.459 48.62 0 13.428-5.443 25.585-14.243 34.385l-94.456 94.456c46.441 10.182 140.443 18.343 189.516-29.898v-98.943c.001-71.642-58.201-129.691-129.902-129.443z" fill="url(#SVGID_2_)"/><circle cx="251" cy="129.445" fill="url(#SVGID_3_)" r="69.108"/><path d="m251 153.797c-6.351 0-11.5-5.149-11.5-11.5v-25.706c0-6.351 5.149-11.5 11.5-11.5 6.352 0 11.5 5.149 11.5 11.5v25.706c0 6.351-5.148 11.5-11.5 11.5z" fill="#efc534"/><g fill="#e05d6f"><g><path d="m251 446.301c-41.527 0-75.312-33.785-75.312-75.312s33.785-75.312 75.312-75.312 75.311 33.785 75.311 75.312-33.784 75.312-75.311 75.312zm0-127.624c-28.845 0-52.312 23.467-52.312 52.312s23.467 52.312 52.312 52.312 52.311-23.467 52.311-52.312-23.466-52.312-52.311-52.312z"/><path d="m206.511 426.978c-2.943 0-5.886-1.122-8.132-3.368-4.491-4.491-4.491-11.772 0-16.264l88.979-88.978c4.492-4.491 11.772-4.491 16.264 0 4.491 4.491 4.491 11.772 0 16.264l-88.979 88.979c-2.246 2.244-5.189 3.367-8.132 3.367z"/></g><path d="m314.162 184.461c-5.387-5.387-13.979-5.898-19.917-1.124-11.838 9.517-26.873 15.216-43.245 15.216-.111 0-.22-.008-.33-.008l-26.355 26.355c8.494 2.378 17.443 3.653 26.685 3.653 23.425 0 44.975-8.172 61.955-21.812 6.952-5.585 7.513-15.975 1.207-22.28z"/><path d="m153.443 146.963c3.153 17.597 10.968 33.597 22.114 46.676 10.789-1.384 19.827-8.354 24.124-17.917-8.421-9.332-14.335-20.971-16.675-33.855-1.303-7.172-7.481-12.423-14.771-12.423-9.29.001-16.43 8.375-14.792 17.519z"/></g><g fill="#fffde3"><path d="m292.273 482h-52.085c-5.523 0-10-4.477-10-10s4.477-10 10-10h52.085c5.522 0 10 4.477 10 10s-4.477 10-10 10z"/><path d="m332.89 481.771c-4.864 0-9.129-3.556-9.876-8.512-.822-5.461 2.938-10.555 8.399-11.378 3.02-.454 5.706-2.21 7.372-4.816 2.972-4.653 9.155-6.016 13.81-3.041 4.654 2.974 6.016 9.158 3.041 13.811-4.774 7.47-12.518 12.508-21.245 13.823-.504.076-1.006.113-1.501.113z"/></g></g></svg>