<svg id="Capa_1" enable-background="new 0 0 512 512" height="44" viewBox="0 0 512 512" width="44" xmlns="http://www.w3.org/2000/svg"><g><g><path d="m270.986 8.529h-14.986l-39.116 14.757-42 55-4 52.75 12 30.167 5.137.415c6.688-5.827 9.637-15.288 6.736-24.262-2.384-7.373-3.407-15.146-3.025-23.031 1.59-32.866 28.241-59.477 61.108-61.057 6.266-.301 12.343.319 18.127 1.702h17.333l41.333 35.983v61l-162.333 111.666v232.417l24.937 8.464h149.787c13.261 0 24.012-10.75 24.012-24.012v-361.741c0-55.854-41.188-102.784-95.05-110.218z" fill="#ff76aa"/><g fill="#ff5595"><path d="m175.963 480.488v-198.457c0-13.566 6.874-26.208 18.26-33.582l130.697-84.647c15.103-9.781 24.837-26.238 25.394-44.223.021-.679.031-1.36.031-2.043 0-36.528-30.595-66.045-67.506-64.27-4.065.195-8.034.777-11.873 1.702 28.283 6.766 49.379 32.241 49.379 62.567 0 .683-.01 1.364-.031 2.043-.556 17.985-10.291 34.442-25.394 44.223l-130.697 84.647c-11.386 7.374-18.26 20.016-18.26 33.582v198.457c0 13.261 10.75 24.012 24.012 24.012h30c-13.261.001-24.012-10.75-24.012-24.011z"/><path d="m180.046 166.12c3.031-.98 5.715-2.535 7.974-4.503-3.034-2.635-5.413-6.104-6.74-10.208-3.529-10.917-5.318-22.313-5.318-33.873 0-55.582 41.426-101.662 95.023-109.007-4.692-.648-9.479-.999-14.344-1.027-60.968-.35-110.679 49.146-110.679 110.035 0 11.56 1.789 22.956 5.318 33.873 3.882 12.005 16.76 18.59 28.766 14.71z"/></g><path d="m322.628 425.206c-3.823-9.383-8.731-22.823-13.007-38.921-1.704-6.414-4.251-12.444-7.223-18l-5.64-2.625h-59.918l-21.374 65.792 8.599 8.333h88.776c7.519.001 12.624-7.616 9.787-14.579z" fill="#fff1af"/><path d="m220.871 425.206c3.823-9.383 8.731-22.823 13.007-38.921 1.704-6.414 4.251-12.444 7.223-18l3.642-2.625h-31.5l-3.642 2.625c-2.972 5.556-5.519 11.586-7.223 18-4.276 16.097-9.184 29.538-13.007 38.921-2.837 6.963 2.268 14.579 9.786 14.579h31.5c-7.518.001-12.622-7.616-9.786-14.579z" fill="#ffeb7e"/><path d="m269.946 330.411h-3.222l-28.787 31.875-1.949 6h66.41c-11.857-22.167-30.588-36.667-30.588-36.667z" fill="#b5dcff"/><path d="m271.689 331.619.056-.043-1.798-1.166h-28.187l-1.57 1.208s-18.731 14.5-30.588 36.667h31.5c11.855-22.166 30.587-36.666 30.587-36.666z" fill="#8bcaff"/><g><path d="m271.81 331.619h-31.622v-54.759c0-3.377 2.738-6.115 6.115-6.115h19.392c3.377 0 6.115 2.738 6.115 6.115z" fill="#dbedff"/></g></g><g><path d="m265.697 263.246h-19.393c-7.507 0-13.614 6.107-13.614 13.614v51.241c-6.006 5.198-19.951 18.416-29.702 36.648-3.491 6.527-6.135 13.126-7.858 19.612-4.311 16.229-9.287 29.631-12.704 38.017-4.839 11.88 3.892 24.908 16.732 24.908h113.686c12.829 0 21.575-13.018 16.731-24.908-3.417-8.388-8.395-21.792-12.704-38.018-1.723-6.486-4.367-13.085-7.858-19.612-.001-.002-.003-.005-.004-.007-9.751-18.227-23.692-31.443-29.697-36.64v-51.241c-.001-7.507-6.109-13.614-13.615-13.614zm-18.007 15h16.621v45.873h-16.621zm54.682 109.964c4.514 16.989 9.729 31.034 13.311 39.826.829 2.036-.645 4.249-2.84 4.249h-31.28v-14c0-4.143-3.357-7.5-7.5-7.5s-7.5 3.357-7.5 7.5v14h-21.125v-14c0-4.143-3.357-7.5-7.5-7.5s-7.5 3.357-7.5 7.5v14h-31.28c-2.187 0-3.673-2.204-2.841-4.249 3.581-8.789 8.797-22.833 13.31-39.825 1.084-4.08 2.625-8.244 4.595-12.426h83.558c1.969 4.181 3.509 8.345 4.592 12.425zm-13.482-27.424h-65.78c7.688-10.751 16.111-18.507 19.784-21.667h26.212c3.677 3.164 12.098 10.919 19.784 21.667z"/><path d="m366.036 323.373c-4.143 0-7.5 3.357-7.5 7.5v149.615c0 9.104-7.407 16.512-16.512 16.512h-172.048c-9.105 0-16.513-7.407-16.513-16.512v-198.457c0-11.068 5.547-21.27 14.838-27.287l130.696-84.646c17.253-11.173 28.849-30.313 28.849-52.561 0-31.985-21.508-60.412-52.303-69.129-3.986-1.125-8.13 1.188-9.26 5.173-1.128 3.986 1.188 8.131 5.174 9.259 24.369 6.898 41.389 29.39 41.389 54.696 0 16.921-8.815 31.43-22.003 39.971l-130.696 84.646c-13.577 8.794-21.684 23.701-21.684 39.877v198.457c0 17.376 14.137 31.512 31.513 31.512h172.049c17.376 0 31.512-14.136 31.512-31.512v-149.614c-.001-4.143-3.358-7.5-7.501-7.5z"/><path d="m256.686.002c-.233-.001-.46-.002-.693-.002-64.874 0-117.53 52.667-117.53 117.537 0 12.342 1.912 24.514 5.683 36.181 5.147 15.918 22.288 24.686 38.208 19.539 15.922-5.147 24.688-22.287 19.541-38.209-2.11-6.525-3.009-13.376-2.672-20.36 1.178-24.324 17.785-45.16 41.327-51.848 3.984-1.132 6.297-5.28 5.165-9.264-1.132-3.985-5.284-6.298-9.265-5.165-29.739 8.449-50.721 34.792-52.21 65.552-.425 8.799.713 17.446 3.381 25.699 2.603 8.052-1.83 16.719-9.88 19.322-8.056 2.601-16.721-1.831-19.323-9.88-3.288-10.173-4.955-20.793-4.955-31.566 0-56.885 46.438-102.928 103.137-102.535 56.208.322 101.937 46.862 101.937 103.745v177.125c0 4.143 3.357 7.5 7.5 7.5s7.5-3.357 7.5-7.5v-177.126c-.001-65.107-52.42-118.375-116.851-118.745z"/></g></g></svg>