<svg width="44" height="44" xmlns="http://www.w3.org/2000/svg" xmlns:xlink="http://www.w3.org/1999/xlink" enable-background="new 0 0 512 512">
 <defs>
  <linearGradient id="svg_27">
   <stop offset="0" stop-color="#f4d952"/>
   <stop offset="1" stop-color="#f9edaf"/>
  </linearGradient>
  <linearGradient id="svg_26" x1="0.5" x2="0.5" xlink:href="#svg_27" y1="1.01126" y2="-0.18514" xlink:href="#svg_27"/>
  <linearGradient id="svg_25" x1="0.5" x2="0.5" y1="1.01126" y2="0.04334">
   <stop offset="0" stop-color="#ec6f80"/>
   <stop offset="1" stop-color="#eca0aa"/>
  </linearGradient>
  <linearGradient id="svg_24" x1="0.5" x2="0.5" xlink:href="#svg_27" y1="0.95278" y2="-0.01514" href="#svg_27"/>
 </defs>
 <g>
  <title>Layer 1</title>
  <g id="svg_43">
   <g id="svg_29">
    <path d="m473.445,228.387c-50.677,-21.072 -134.947,0 -189.516,29.898l-45.625,45.625c-15.206,15.206 -23.748,35.829 -23.748,57.334l0,90.13c0,27.96 22.666,50.626 50.626,50.626l157.636,0c27.96,0 50.626,-22.666 50.626,-50.626l0,-222.987l0.001,0z" fill="url(#svg_26)" id="svg_30"/>
    <path d="m343.542,0.001c-71.541,0.247 -128.987,59.307 -128.987,130.849l0,32.285c0,16.992 13.774,30.766 30.766,30.766l19.285,0c16.992,0 30.766,-13.774 30.766,-30.766l0,-32.89c0,-26.666 21.134,-48.975 47.796,-49.421c27.237,-0.455 49.459,21.488 49.459,48.62c0,13.428 -5.443,25.585 -14.243,34.385l-94.456,94.456c46.441,10.182 140.443,18.343 189.516,-29.898l0,-98.943c0.001,-71.642 -58.201,-129.691 -129.902,-129.443z" fill="url(#svg_25)" id="svg_31"/>
    <circle cx="344" cy="129.445" fill="url(#svg_24)" r="69.108" id="svg_32"/>
    <path d="m344,153.797c-6.351,0 -11.5,-5.149 -11.5,-11.5l0,-25.706c0,-6.351 5.149,-11.5 11.5,-11.5c6.352,0 11.5,5.149 11.5,11.5l0,25.706c0,6.351 -5.148,11.5 -11.5,11.5z" fill="#efc534" id="svg_33"/>
    <g fill="#e05d6f" id="svg_34">
     <g id="svg_35">
      <path d="m344,446.301c-41.527,0 -75.312,-33.785 -75.312,-75.312s33.785,-75.312 75.312,-75.312s75.311,33.785 75.311,75.312s-33.784,75.312 -75.311,75.312zm0,-127.624c-28.845,0 -52.312,23.467 -52.312,52.312s23.467,52.312 52.312,52.312s52.311,-23.467 52.311,-52.312s-23.466,-52.312 -52.311,-52.312z" id="svg_36"/>
      <path d="m299.511,426.978c-2.943,0 -5.886,-1.122 -8.132,-3.368c-4.491,-4.491 -4.491,-11.772 0,-16.264l88.979,-88.978c4.492,-4.491 11.772,-4.491 16.264,0c4.491,4.491 4.491,11.772 0,16.264l-88.979,88.979c-2.246,2.244 -5.189,3.367 -8.132,3.367z" id="svg_37"/>
     </g>
     <path d="m407.162,184.461c-5.387,-5.387 -13.979,-5.898 -19.917,-1.124c-11.838,9.517 -26.873,15.216 -43.245,15.216c-0.111,0 -0.22,-0.008 -0.33,-0.008l-26.355,26.355c8.494,2.378 17.443,3.653 26.685,3.653c23.425,0 44.975,-8.172 61.955,-21.812c6.952,-5.585 7.513,-15.975 1.207,-22.28z" id="svg_38"/>
     <path d="m246.443,146.963c3.153,17.597 10.968,33.597 22.114,46.676c10.789,-1.384 19.827,-8.354 24.124,-17.917c-8.421,-9.332 -14.335,-20.971 -16.675,-33.855c-1.303,-7.172 -7.481,-12.423 -14.771,-12.423c-9.29,0.001 -16.43,8.375 -14.792,17.519z" id="svg_39"/>
    </g>
    <g fill="#fffde3" id="svg_40">
     <path d="m385.273,482l-52.085,0c-5.523,0 -10,-4.477 -10,-10s4.477,-10 10,-10l52.085,0c5.522,0 10,4.477 10,10s-4.477,10 -10,10z" id="svg_41"/>
     <path d="m425.89,481.771c-4.864,0 -9.129,-3.556 -9.876,-8.512c-0.822,-5.461 2.938,-10.555 8.399,-11.378c3.02,-0.454 5.706,-2.21 7.372,-4.816c2.972,-4.653 9.155,-6.016 13.81,-3.041c4.654,2.974 6.016,9.158 3.041,13.811c-4.774,7.47 -12.518,12.508 -21.245,13.823c-0.504,0.076 -1.006,0.113 -1.501,0.113z" id="svg_42"/>
    </g>
   </g>
  </g>
  <g id="svg_1">
   <g id="svg_2">
    <path d="m201.986,8.529l-14.986,0l-39.116,14.757l-42,55l-4,52.75l12,30.167l5.137,0.415c6.688,-5.827 9.637,-15.288 6.736,-24.262c-2.384,-7.373 -3.407,-15.146 -3.025,-23.031c1.59,-32.866 28.241,-59.477 61.108,-61.057c6.266,-0.301 12.343,0.319 18.127,1.702l17.333,0l41.333,35.983l0,61l-162.333,111.666l0,232.417l24.937,8.464l149.787,0c13.261,0 24.012,-10.75 24.012,-24.012l0,-361.741c0,-55.854 -41.188,-102.784 -95.05,-110.218z" fill="#ff76aa" id="svg_3"/>
    <g fill="#ff5595" id="svg_4">
     <path d="m106.963,480.488l0,-198.457c0,-13.566 6.874,-26.208 18.26,-33.582l130.697,-84.647c15.103,-9.781 24.837,-26.238 25.394,-44.223c0.021,-0.679 0.031,-1.36 0.031,-2.043c0,-36.528 -30.595,-66.045 -67.506,-64.27c-4.065,0.195 -8.034,0.777 -11.873,1.702c28.283,6.766 49.379,32.241 49.379,62.567c0,0.683 -0.01,1.364 -0.031,2.043c-0.556,17.985 -10.291,34.442 -25.394,44.223l-130.697,84.647c-11.386,7.374 -18.26,20.016 -18.26,33.582l0,198.457c0,13.261 10.75,24.012 24.012,24.012l30,0c-13.261,0.001 -24.012,-10.75 -24.012,-24.011z" id="svg_5"/>
     <path d="m111.046,166.12c3.031,-0.98 5.715,-2.535 7.974,-4.503c-3.034,-2.635 -5.413,-6.104 -6.74,-10.208c-3.529,-10.917 -5.318,-22.313 -5.318,-33.873c0,-55.582 41.426,-101.662 95.023,-109.007c-4.692,-0.648 -9.479,-0.999 -14.344,-1.027c-60.968,-0.35 -110.679,49.146 -110.679,110.035c0,11.56 1.789,22.956 5.318,33.873c3.882,12.005 16.76,18.59 28.766,14.71z" id="svg_6"/>
    </g>
    <path d="m253.628,425.206c-3.823,-9.383 -8.731,-22.823 -13.007,-38.921c-1.704,-6.414 -4.251,-12.444 -7.223,-18l-5.64,-2.625l-59.918,0l-21.374,65.792l8.599,8.333l88.776,0c7.519,0.001 12.624,-7.616 9.787,-14.579z" fill="#fff1af" id="svg_7"/>
    <path d="m151.871,425.206c3.823,-9.383 8.731,-22.823 13.007,-38.921c1.704,-6.414 4.251,-12.444 7.223,-18l3.642,-2.625l-31.5,0l-3.642,2.625c-2.972,5.556 -5.519,11.586 -7.223,18c-4.276,16.097 -9.184,29.538 -13.007,38.921c-2.837,6.963 2.268,14.579 9.786,14.579l31.5,0c-7.518,0.001 -12.622,-7.616 -9.786,-14.579z" fill="#ffeb7e" id="svg_8"/>
    <path d="m200.946,330.411l-3.222,0l-28.787,31.875l-1.949,6l66.41,0c-11.857,-22.167 -30.588,-36.667 -30.588,-36.667l-1.864,-1.208z" fill="#b5dcff" id="svg_9"/>
    <path d="m202.689,331.619l0.056,-0.043l-1.798,-1.166l-28.187,0l-1.57,1.208s-18.731,14.5 -30.588,36.667l31.5,0c11.855,-22.166 30.587,-36.666 30.587,-36.666z" fill="#8bcaff" id="svg_10"/>
    <g id="svg_11">
     <path d="m202.81,331.619l-31.622,0l0,-54.759c0,-3.377 2.738,-6.115 6.115,-6.115l19.392,0c3.377,0 6.115,2.738 6.115,6.115l0,54.759z" fill="#dbedff" id="svg_12"/>
    </g>
   </g>
   <g id="svg_13">
    <path d="m196.697,263.246l-19.393,0c-7.507,0 -13.614,6.107 -13.614,13.614l0,51.241c-6.006,5.198 -19.951,18.416 -29.702,36.648c-3.491,6.527 -6.135,13.126 -7.858,19.612c-4.311,16.229 -9.287,29.631 -12.704,38.017c-4.839,11.88 3.892,24.908 16.732,24.908l113.686,0c12.829,0 21.575,-13.018 16.731,-24.908c-3.417,-8.388 -8.395,-21.792 -12.704,-38.018c-1.723,-6.486 -4.367,-13.085 -7.858,-19.612c-0.001,-0.002 -0.003,-0.005 -0.004,-0.007c-9.751,-18.227 -23.692,-31.443 -29.697,-36.64l0,-51.241c-0.001,-7.507 -6.109,-13.614 -13.615,-13.614zm-18.007,15l16.621,0l0,45.873l-16.621,0l0,-45.873zm54.682,109.964c4.514,16.989 9.729,31.034 13.311,39.826c0.829,2.036 -0.645,4.249 -2.84,4.249l-31.28,0l0,-14c0,-4.143 -3.357,-7.5 -7.5,-7.5s-7.5,3.357 -7.5,7.5l0,14l-21.125,0l0,-14c0,-4.143 -3.357,-7.5 -7.5,-7.5s-7.5,3.357 -7.5,7.5l0,14l-31.28,0c-2.187,0 -3.673,-2.204 -2.841,-4.249c3.581,-8.789 8.797,-22.833 13.31,-39.825c1.084,-4.08 2.625,-8.244 4.595,-12.426l83.558,0c1.969,4.181 3.509,8.345 4.592,12.425zm-13.482,-27.424l-65.78,0c7.688,-10.751 16.111,-18.507 19.784,-21.667l26.212,0c3.677,3.164 12.098,10.919 19.784,21.667z" id="svg_14"/>
    <path d="m297.036,323.373c-4.143,0 -7.5,3.357 -7.5,7.5l0,149.615c0,9.104 -7.407,16.512 -16.512,16.512l-172.048,0c-9.105,0 -16.513,-7.407 -16.513,-16.512l0,-198.457c0,-11.068 5.547,-21.27 14.838,-27.287l130.696,-84.646c17.253,-11.173 28.849,-30.313 28.849,-52.561c0,-31.985 -21.508,-60.412 -52.303,-69.129c-3.986,-1.125 -8.13,1.188 -9.26,5.173c-1.128,3.986 1.188,8.131 5.174,9.259c24.369,6.898 41.389,29.39 41.389,54.696c0,16.921 -8.815,31.43 -22.003,39.971l-130.696,84.646c-13.577,8.794 -21.684,23.701 -21.684,39.877l0,198.457c0,17.376 14.137,31.512 31.513,31.512l172.049,0c17.376,0 31.512,-14.136 31.512,-31.512l0,-149.614c-0.001,-4.143 -3.358,-7.5 -7.501,-7.5z" id="svg_15"/>
    <path d="m187.686,0.002c-0.233,-0.001 -0.46,-0.002 -0.693,-0.002c-64.874,0 -117.53,52.667 -117.53,117.537c0,12.342 1.912,24.514 5.683,36.181c5.147,15.918 22.288,24.686 38.208,19.539c15.922,-5.147 24.688,-22.287 19.541,-38.209c-2.11,-6.525 -3.009,-13.376 -2.672,-20.36c1.178,-24.324 17.785,-45.16 41.327,-51.848c3.984,-1.132 6.297,-5.28 5.165,-9.264c-1.132,-3.985 -5.284,-6.298 -9.265,-5.165c-29.739,8.449 -50.721,34.792 -52.21,65.552c-0.425,8.799 0.713,17.446 3.381,25.699c2.603,8.052 -1.83,16.719 -9.88,19.322c-8.056,2.601 -16.721,-1.831 -19.323,-9.88c-3.288,-10.173 -4.955,-20.793 -4.955,-31.566c0,-56.885 46.438,-102.928 103.137,-102.535c56.208,0.322 101.937,46.862 101.937,103.745l0,177.125c0,4.143 3.357,7.5 7.5,7.5s7.5,-3.357 7.5,-7.5l0,-177.126c-0.001,-65.107 -52.42,-118.375 -116.851,-118.745z" id="svg_16"/>
   </g>
  </g>
 </g>
</svg>