<?xml version="1.0" encoding="UTF-8" standalone="no"?>
<!DOCTYPE svg PUBLIC "-//W3C//DTD SVG 1.1//EN" "http://www.w3.org/Graphics/SVG/1.1/DTD/svg11.dtd">
<svg version="1.1" xmlns="http://www.w3.org/2000/svg" xmlns:xlink="http://www.w3.org/1999/xlink" preserveAspectRatio="xMidYMid meet" viewBox="0 0 640 640" width="44" height="44"><defs><path d="M222.11 292.46C217.46 297.12 180.23 334.34 175.57 339C160.07 354.51 151.35 375.54 151.35 397.47C151.35 406.66 151.35 480.21 151.35 489.4C151.35 517.91 174.47 541.03 202.99 541.03C219.07 541.03 347.69 541.03 363.76 541.03C392.28 541.03 415.4 517.91 415.4 489.4C415.4 474.24 415.4 398.43 415.4 261.97C323.64 261.97 259.21 272.13 222.11 292.46Z" id="a3LHO62FHs"></path><linearGradient id="gradientdwmscryYW" gradientUnits="userSpaceOnUse" x1="283.38" y1="544.27" x2="283.38" y2="200"><stop style="stop-color: #f4d952;stop-opacity: 1" offset="0%"></stop><stop style="stop-color: #f9edaf;stop-opacity: 1" offset="100%"></stop></linearGradient><path d="M151.35 162.49C151.35 165.78 151.35 192.12 151.35 195.42C151.35 212.75 165.4 226.8 182.73 226.8C184.7 226.8 200.43 226.8 202.4 226.8C219.73 226.8 233.78 212.75 233.78 195.42C233.78 192.06 233.78 165.23 233.78 161.87C233.78 134.67 255.33 111.92 282.53 111.47C310.31 111 332.97 133.38 332.97 161.05C332.97 174.75 327.42 187.15 318.45 196.12C308.81 205.76 231.74 282.83 222.11 292.46C269.47 302.85 365.35 311.17 415.4 261.97C415.4 251.88 415.4 171.15 415.4 161.05C415.4 87.99 356.04 28.78 282.91 29.03C209.94 29.29 151.35 89.52 151.35 162.49Z" id="c4w7Ma07s0"></path><linearGradient id="gradiente1S2iIVdZ0" gradientUnits="userSpaceOnUse" x1="283.38" y1="303.44" x2="283.38" y2="40.79"><stop style="stop-color: #ec6f80;stop-opacity: 1" offset="0%"></stop><stop style="stop-color: #eca0aa;stop-opacity: 1" offset="100%"></stop></linearGradient><path d="M283.38 90.57C244.45 90.57 212.89 122.13 212.89 161.06C212.89 199.98 244.45 231.54 283.38 231.54C322.3 231.54 353.86 199.98 353.86 161.06C353.86 122.13 322.3 90.57 283.38 90.57Z" id="h2bDJzpCif"></path><linearGradient id="gradienta2Na8xM3AK" gradientUnits="userSpaceOnUse" x1="283.38" y1="224.88" x2="283.38" y2="88.44"><stop style="stop-color: #f4d952;stop-opacity: 1" offset="0%"></stop><stop style="stop-color: #f9edaf;stop-opacity: 1" offset="100%"></stop></linearGradient><path d="M271.65 174.16C271.65 171.54 271.65 150.57 271.65 147.95C271.65 141.47 276.9 136.22 283.38 136.22C289.85 136.22 295.11 141.47 295.11 147.95C295.11 150.57 295.11 171.54 295.11 174.16C295.11 180.64 289.85 185.89 283.38 185.89C276.9 185.89 271.65 180.64 271.65 174.16Z" id="i73MZMLjk"></path><path d="M206.56 407.41C206.56 365.06 241.02 330.6 283.38 330.6C325.73 330.6 360.19 365.06 360.19 407.41C360.19 449.77 325.73 484.22 283.38 484.22C241.02 484.22 206.56 449.77 206.56 407.41ZM230.02 407.41C230.02 436.83 253.96 460.77 283.38 460.77C312.8 460.77 336.73 436.83 336.73 407.41C336.73 377.99 312.8 354.06 283.38 354.06C253.96 354.06 230.02 377.99 230.02 407.41Z" id="aa9QJRC81"></path><path d="M229.71 461.08C225.13 456.5 225.13 449.07 229.71 444.49C238.78 435.42 311.38 362.82 320.46 353.74C325.04 349.16 332.47 349.16 337.05 353.74C341.63 358.32 341.63 365.75 337.05 370.33C327.97 379.41 255.37 452.01 246.3 461.08C244 463.37 241 464.52 238 464.52C235 464.52 232 463.37 229.71 461.08Z" id="bKzXKzYz"></path><path d="M327.48 216.02C315.41 225.73 300.07 231.54 283.38 231.54C283.26 231.54 283.15 231.53 283.04 231.53C280.35 234.22 258.85 255.72 256.16 258.41C264.82 260.84 273.95 262.14 283.38 262.14C307.27 262.14 329.25 253.8 346.57 239.89C353.66 234.2 354.23 223.6 347.8 217.17C342.3 211.67 333.54 211.15 327.48 216.02Z" id="h2lYLOOzXf"></path><path d="M206.43 226.53C217.43 225.12 226.65 218.01 231.04 208.25C222.45 198.74 216.41 186.87 214.03 173.73C212.7 166.41 206.4 161.05 198.96 161.05C189.49 161.06 182.21 169.6 183.88 178.92C187.09 196.87 195.06 213.19 206.43 226.53Z" id="bk5skcs74"></path><path d="M272.35 520.63C266.72 520.63 262.15 516.07 262.15 510.43C262.15 504.8 266.72 500.24 272.35 500.24C277.66 500.24 320.16 500.24 325.47 500.24C331.1 500.24 335.67 504.8 335.67 510.43C335.67 516.07 331.1 520.63 325.47 520.63C314.85 520.63 277.66 520.63 272.35 520.63Z" id="b1gXeCKwYv"></path><path d="M356.82 511.72C355.99 506.15 359.82 500.95 365.39 500.11C368.47 499.65 371.21 497.86 372.91 495.2C375.94 490.46 382.25 489.07 387 492.1C391.74 495.13 393.13 501.44 390.1 506.19C385.23 513.81 377.33 518.94 368.43 520.29C367.91 520.36 367.4 520.4 366.9 520.4C361.94 520.4 357.59 516.77 356.82 511.72Z" id="a9d7NUxLd"></path><path d="M390.13 37.56L351.01 52.32L309.01 107.32L305.01 160.07L317.01 190.24C320.1 190.48 321.81 190.62 322.15 190.65C328.84 184.82 331.79 175.36 328.89 166.39C326.5 159.02 325.48 151.24 325.86 143.36C327.45 110.49 354.1 83.88 386.97 82.3C393.24 82 399.31 82.62 405.1 84C406.25 84 412.03 84 422.43 84L463.76 119.99L463.76 180.99L301.43 292.65L301.43 525.07L326.37 533.53C416.24 533.53 466.17 533.53 476.15 533.53C489.41 533.53 500.17 522.78 500.17 509.52C500.17 473.35 500.17 183.95 500.17 147.78C500.17 91.93 458.98 45 405.12 37.56C405.12 37.56 400.12 37.56 390.13 37.56Z" id="bd4zbhZvV"></path><path d="M310.09 311.06C310.09 297.5 316.97 284.86 328.35 277.48C341.42 269.02 445.98 201.3 459.05 192.83C474.15 183.05 483.89 166.6 484.44 148.61C484.46 147.93 484.47 147.25 484.47 146.57C484.47 110.04 453.88 80.52 416.97 82.3C412.9 82.49 408.93 83.08 405.1 84C433.38 90.77 454.47 116.24 454.47 146.57C454.47 147.25 454.46 147.93 454.44 148.61C453.89 166.6 444.15 183.05 429.05 192.83C415.98 201.3 311.42 269.02 298.35 277.48C286.97 284.85 280.09 297.5 280.09 311.06C280.09 330.91 280.09 489.67 280.09 509.52C280.09 522.78 290.84 533.53 304.1 533.53C307.1 533.53 331.1 533.53 334.1 533.53C320.84 533.53 310.09 522.78 310.09 509.52C310.09 469.83 310.09 330.91 310.09 311.06Z" id="a492jkeyS0"></path><path d="M322.15 190.65C319.12 188.01 316.74 184.55 315.41 180.44C311.88 169.52 310.09 158.13 310.09 146.57C310.09 90.99 351.52 44.91 405.11 37.56C400.42 36.91 395.64 36.56 390.77 36.53C329.8 36.18 280.09 85.68 280.09 146.57C280.09 158.13 281.88 169.53 285.41 180.44C289.29 192.45 302.17 199.03 314.18 195.15C317.21 194.17 319.89 192.62 322.15 190.65Z" id="kqXzfIQzw"></path><path d="M443.75 415.32C442.05 408.9 439.5 402.87 436.53 397.32C436.15 397.14 434.27 396.27 430.89 394.69L370.97 394.69L349.6 460.48L358.19 468.82C411.46 468.82 441.05 468.82 446.97 468.82C454.49 468.82 459.59 461.2 456.76 454.24C452.93 444.86 448.03 431.42 443.75 415.32Z" id="b1oPb4KPOg"></path><path d="M368.01 415.32C369.71 408.9 372.26 402.87 375.23 397.32C375.47 397.14 376.69 396.27 378.87 394.69L347.37 394.69C345.19 396.27 343.97 397.14 343.73 397.32C340.76 402.87 338.21 408.9 336.51 415.32C332.23 431.41 327.32 444.86 323.5 454.24C320.66 461.2 325.77 468.82 333.29 468.82C336.44 468.82 361.64 468.82 364.79 468.82C357.27 468.82 352.16 461.2 355 454.24C358.82 444.86 363.73 431.42 368.01 415.32Z" id="a1ppUzfFMK"></path><path d="M404.08 359.44L400.85 359.44L372.07 391.32L370.12 397.32C409.96 397.32 432.1 397.32 436.53 397.32C424.67 375.15 405.94 360.65 405.94 360.65C405.69 360.49 405.07 360.09 404.08 359.44Z" id="c1CQY6Bmc"></path><path d="M405.87 360.61L404.08 359.44L375.89 359.44C374.95 360.17 374.42 360.57 374.32 360.65C374.32 360.65 355.59 375.15 343.73 397.32C346.88 397.32 372.08 397.32 375.23 397.32C387.09 375.15 405.82 360.65 405.82 360.65C405.83 360.65 405.84 360.63 405.87 360.61Z" id="a3LUG3pRTb"></path><path d="M405.94 360.65L374.32 360.65C374.32 327.8 374.32 309.54 374.32 305.89C374.32 302.52 377.06 299.78 380.43 299.78C382.37 299.78 397.88 299.78 399.82 299.78C403.2 299.78 405.94 302.52 405.94 305.89C405.94 313.19 405.94 331.45 405.94 360.65Z" id="a6TGhnFBA"></path><path d="M380.43 292.28C372.93 292.28 366.82 298.39 366.82 305.89C366.82 311.02 366.82 352.01 366.82 357.13C360.81 362.33 346.87 375.55 337.12 393.78C333.63 400.31 330.98 406.91 329.26 413.39C324.95 429.62 319.97 443.02 316.56 451.41C311.72 463.29 320.45 476.32 333.29 476.32C344.66 476.32 435.6 476.32 446.97 476.32C459.8 476.32 468.55 463.3 463.7 451.41C460.29 443.02 455.31 429.62 451 413.39C449.28 406.91 446.63 400.31 443.14 393.78C443.14 393.78 443.14 393.78 443.14 393.77C433.39 375.55 419.45 362.33 413.44 357.13C413.44 352.01 413.44 311.02 413.44 305.89C413.44 298.39 407.33 292.28 399.83 292.28C395.95 292.28 382.37 292.28 380.43 292.28ZM381.82 307.28L398.44 307.28L398.44 353.15L381.82 353.15L381.82 307.28ZM449.81 457.07C450.64 459.1 449.17 461.32 446.97 461.32C444.89 461.32 434.46 461.32 415.69 461.32C415.69 452.92 415.69 448.25 415.69 447.32C415.69 443.17 412.34 439.82 408.19 439.82C404.05 439.82 400.69 443.17 400.69 447.32C400.69 448.25 400.69 452.92 400.69 461.32L379.57 461.32C379.57 452.92 379.57 448.25 379.57 447.32C379.57 443.17 376.21 439.82 372.07 439.82C367.92 439.82 364.57 443.17 364.57 447.32C364.57 448.25 364.57 452.92 364.57 461.32C345.8 461.32 335.37 461.32 333.29 461.32C331.1 461.32 329.61 459.11 330.45 457.07C334.03 448.28 339.24 434.24 343.76 417.24C344.84 413.16 346.38 409 348.35 404.82C356.71 404.82 423.55 404.82 431.91 404.82C433.88 409 435.42 413.16 436.5 417.24C441.02 434.23 446.23 448.28 449.81 457.07ZM357.24 389.82C364.93 379.07 373.35 371.31 377.02 368.15C379.64 368.15 400.61 368.15 403.24 368.15C406.91 371.32 415.33 379.07 423.02 389.82C409.86 389.82 363.82 389.82 357.24 389.82Z" id="c8GnJWvmG"></path><path d="M492.67 359.91C492.67 374.87 492.67 494.56 492.67 509.52C492.67 518.62 485.26 526.03 476.15 526.03C458.95 526.03 321.31 526.03 304.11 526.03C295 526.03 287.59 518.63 287.59 509.52C287.59 489.67 287.59 330.91 287.59 311.06C287.59 300 293.14 289.79 302.43 283.78C315.5 275.31 420.06 207.6 433.13 199.13C450.38 187.96 461.98 168.82 461.98 146.57C461.98 114.58 440.47 86.16 409.67 77.44C405.69 76.32 401.54 78.63 400.41 82.61C399.28 86.6 401.6 90.74 405.59 91.87C429.96 98.77 446.98 121.26 446.98 146.57C446.98 163.49 438.16 178 424.97 186.54C411.9 195 307.35 262.72 294.28 271.19C280.7 279.98 272.59 294.89 272.59 311.06C272.59 330.91 272.59 489.67 272.59 509.52C272.59 526.9 286.73 541.03 304.11 541.03C321.31 541.03 458.95 541.03 476.15 541.03C493.53 541.03 507.67 526.9 507.67 509.52C507.67 494.56 507.67 374.87 507.67 359.91C507.67 355.76 504.31 352.41 500.17 352.41C496.02 352.41 492.67 355.76 492.67 359.91Z" id="ajnhh3zBS"></path><path d="M390.12 29.03C325.25 29.03 272.59 81.7 272.59 146.57C272.59 158.91 274.5 171.08 278.28 182.75C283.42 198.67 300.56 207.44 316.48 202.29C332.41 197.14 341.17 180 336.02 164.08C333.91 157.56 333.02 150.7 333.35 143.72C334.53 119.4 351.14 98.56 374.68 91.87C378.66 90.74 380.98 86.59 379.84 82.61C378.71 78.62 374.56 76.31 370.58 77.44C340.84 85.89 319.86 112.24 318.37 143C317.94 151.79 319.08 160.44 321.75 168.69C324.35 176.75 319.92 185.41 311.87 188.02C303.81 190.62 295.15 186.19 292.55 178.14C289.26 167.96 287.59 157.34 287.59 146.57C287.59 89.69 334.03 43.64 390.73 44.04C446.94 44.36 492.67 90.9 492.67 147.78C492.67 165.49 492.67 307.19 492.67 324.91C492.67 329.05 496.02 332.41 500.17 332.41C504.31 332.41 507.67 329.05 507.67 324.91C507.67 307.19 507.67 165.49 507.67 147.78C507.67 82.67 455.25 29.4 390.82 29.03C390.58 29.03 390.36 29.03 390.12 29.03Z" id="eYTnbdtpp"></path></defs><g><g><g><g><use xlink:href="#a3LHO62FHs" opacity="1" fill="url(#gradientdwmscryYW)"></use><g><use xlink:href="#a3LHO62FHs" opacity="1" fill-opacity="0" stroke="#000000" stroke-width="1" stroke-opacity="0"></use></g></g><g><use xlink:href="#c4w7Ma07s0" opacity="1" fill="url(#gradiente1S2iIVdZ0)"></use><g><use xlink:href="#c4w7Ma07s0" opacity="1" fill-opacity="0" stroke="#000000" stroke-width="1" stroke-opacity="0"></use></g></g><g><use xlink:href="#h2bDJzpCif" opacity="1" fill="url(#gradienta2Na8xM3AK)"></use><g><use xlink:href="#h2bDJzpCif" opacity="1" fill-opacity="0" stroke="#000000" stroke-width="1" stroke-opacity="0"></use></g></g><g><use xlink:href="#i73MZMLjk" opacity="1" fill="#efc534" fill-opacity="1"></use><g><use xlink:href="#i73MZMLjk" opacity="1" fill-opacity="0" stroke="#000000" stroke-width="1" stroke-opacity="0"></use></g></g><g><use xlink:href="#aa9QJRC81" opacity="1" fill="#e05d6f" fill-opacity="1"></use><g><use xlink:href="#aa9QJRC81" opacity="1" fill-opacity="0" stroke="#000000" stroke-width="1" stroke-opacity="0"></use></g></g><g><use xlink:href="#bKzXKzYz" opacity="1" fill="#e05d6f" fill-opacity="1"></use><g><use xlink:href="#bKzXKzYz" opacity="1" fill-opacity="0" stroke="#000000" stroke-width="1" stroke-opacity="0"></use></g></g><g><use xlink:href="#h2lYLOOzXf" opacity="1" fill="#e05d6f" fill-opacity="1"></use><g><use xlink:href="#h2lYLOOzXf" opacity="1" fill-opacity="0" stroke="#000000" stroke-width="1" stroke-opacity="0"></use></g></g><g><use xlink:href="#bk5skcs74" opacity="1" fill="#e05d6f" fill-opacity="1"></use><g><use xlink:href="#bk5skcs74" opacity="1" fill-opacity="0" stroke="#000000" stroke-width="1" stroke-opacity="0"></use></g></g><g><use xlink:href="#b1gXeCKwYv" opacity="1" fill="#fffde3" fill-opacity="1"></use><g><use xlink:href="#b1gXeCKwYv" opacity="1" fill-opacity="0" stroke="#000000" stroke-width="1" stroke-opacity="0"></use></g></g><g><use xlink:href="#a9d7NUxLd" opacity="1" fill="#fffde3" fill-opacity="1"></use><g><use xlink:href="#a9d7NUxLd" opacity="1" fill-opacity="0" stroke="#000000" stroke-width="1" stroke-opacity="0"></use></g></g></g><g><g><use xlink:href="#bd4zbhZvV" opacity="1" fill="#ff76aa" fill-opacity="1"></use><g><use xlink:href="#bd4zbhZvV" opacity="1" fill-opacity="0" stroke="#000000" stroke-width="1" stroke-opacity="0"></use></g></g><g><use xlink:href="#a492jkeyS0" opacity="1" fill="#ff5595" fill-opacity="1"></use><g><use xlink:href="#a492jkeyS0" opacity="1" fill-opacity="0" stroke="#000000" stroke-width="1" stroke-opacity="0"></use></g></g><g><use xlink:href="#kqXzfIQzw" opacity="1" fill="#ff5595" fill-opacity="1"></use><g><use xlink:href="#kqXzfIQzw" opacity="1" fill-opacity="0" stroke="#000000" stroke-width="1" stroke-opacity="0"></use></g></g><g><use xlink:href="#b1oPb4KPOg" opacity="1" fill="#fff1af" fill-opacity="1"></use><g><use xlink:href="#b1oPb4KPOg" opacity="1" fill-opacity="0" stroke="#000000" stroke-width="1" stroke-opacity="0"></use></g></g><g><use xlink:href="#a1ppUzfFMK" opacity="1" fill="#ffeb7e" fill-opacity="1"></use><g><use xlink:href="#a1ppUzfFMK" opacity="1" fill-opacity="0" stroke="#000000" stroke-width="1" stroke-opacity="0"></use></g></g><g><use xlink:href="#c1CQY6Bmc" opacity="1" fill="#b5dcff" fill-opacity="1"></use><g><use xlink:href="#c1CQY6Bmc" opacity="1" fill-opacity="0" stroke="#000000" stroke-width="1" stroke-opacity="0"></use></g></g><g><use xlink:href="#a3LUG3pRTb" opacity="1" fill="#8bcaff" fill-opacity="1"></use><g><use xlink:href="#a3LUG3pRTb" opacity="1" fill-opacity="0" stroke="#000000" stroke-width="1" stroke-opacity="0"></use></g></g><g><use xlink:href="#a6TGhnFBA" opacity="1" fill="#dbedff" fill-opacity="1"></use><g><use xlink:href="#a6TGhnFBA" opacity="1" fill-opacity="0" stroke="#000000" stroke-width="1" stroke-opacity="0"></use></g></g><g><use xlink:href="#c8GnJWvmG" opacity="1" fill="#000000" fill-opacity="1"></use><g><use xlink:href="#c8GnJWvmG" opacity="1" fill-opacity="0" stroke="#000000" stroke-width="1" stroke-opacity="0"></use></g></g><g><use xlink:href="#ajnhh3zBS" opacity="1" fill="#000000" fill-opacity="1"></use><g><use xlink:href="#ajnhh3zBS" opacity="1" fill-opacity="0" stroke="#000000" stroke-width="1" stroke-opacity="0"></use></g></g><g><use xlink:href="#eYTnbdtpp" opacity="1" fill="#000000" fill-opacity="1"></use><g><use xlink:href="#eYTnbdtpp" opacity="1" fill-opacity="0" stroke="#000000" stroke-width="1" stroke-opacity="0"></use></g></g></g></g></g></svg>